<svg width="32" height="32" fill="none" xmlns="http://www.w3.org/2000/svg"><path fill-rule="evenodd" clip-rule="evenodd" d="M32 16c0 8.837-7.163 16-16 16S0 24.837 0 16 7.163 0 16 0s16 7.163 16 16zM17.185 9.33c1.371.269 2.59.955 3.542 1.91a7.007 7.007 0 0 1 1.903 3.596c.038.113.114.19.227.19h.038c.113-.039.226-.152.189-.27-.306-1.452-.99-2.791-2.055-3.822a7.26 7.26 0 0 0-3.806-2.025c-.113-.038-.268.037-.268.19.038.075.113.189.227.227l.003.003zm2.247 3.287c-.683-.69-1.56-1.145-2.511-1.376l-.008-.008c-.113-.038-.188-.152-.15-.227 0-.152.154-.228.267-.19a5.502 5.502 0 0 1 2.742 1.49c.721.766 1.257 1.684 1.484 2.753a.286.286 0 0 1-.189.27h-.038c-.113 0-.188-.076-.226-.19-.23-.956-.684-1.835-1.37-2.522zm-2.854.61a3.231 3.231 0 0 1 1.408.805c.381.383.646.88.8 1.414.038.114.114.19.227.19h.076c.113-.038.188-.152.15-.307-.188-.649-.494-1.187-.913-1.604-.42-.421-.99-.729-1.598-.918-.113-.038-.268.038-.305.152-.038.113.037.227.15.269h.005zm5.788 5.204 2.968 2.98a1.77 1.77 0 0 1-.113 2.522c-1.065 1.031-1.786 1.684-3.425 1.873h-.381c-.646 0-1.941-.117-3.693-.804-2.134-.876-4.267-2.332-6.321-4.395-4.037-4.088-5.559-7.11-5.14-10.436.19-1.645.876-2.45 1.862-3.443.344-.345.8-.535 1.295-.535.457 0 .914.19 1.22.497l2.972 2.992c.687.686.645 1.835-.038 2.522l-.838.842a.932.932 0 0 0-.151 1.145c.65 1.145 1.295 2.063 2.246 3.018.835.842 1.71 1.49 3.006 2.257.151.076.344.114.495.114a.92.92 0 0 0 .683-.27l.838-.841c.344-.346.801-.535 1.296-.535.457 0 .914.19 1.22.497z" fill="url(#a)"/><defs><linearGradient id="a" x1="-.96" y1="16.8" x2="32" y2="16.48" gradientUnits="userSpaceOnUse"><stop stop-color="#E9DBB8"/><stop offset=".17" stop-color="#CBA868"/><stop offset=".344" stop-color="#A4783C"/><stop offset=".484" stop-color="#683901"/><stop offset=".645" stop-color="#BD9656"/><stop offset=".719" stop-color="#FDEAC0"/><stop offset=".895" stop-color="#987033"/><stop offset="1" stop-color="#664E2D"/></linearGradient></defs></svg>